<svg xmlns="http://www.w3.org/2000/svg" version="1.1" xmlns:xlink="http://www.w3.org/1999/xlink" xmlns:svgjs="http://svgjs.dev/svgjs" width="1440" height="560" preserveAspectRatio="none" viewBox="0 0 1440 560"><g mask="url(&quot;#SvgjsMask1002&quot;)" fill="none"><rect width="1440" height="560" x="0" y="0" fill="url(&quot;#SvgjsLinearGradient1003&quot;)"></rect><path d="M1440 0L850.41 0L1440 145.78z" fill="rgba(255, 255, 255, .1)"></path><path d="M850.41 0L1440 145.78L1440 370.63L562.1199999999999 0z" fill="rgba(255, 255, 255, .075)"></path><path d="M562.1199999999999 0L1440 370.63L1440 404.78L431.01999999999987 0z" fill="rgba(255, 255, 255, .05)"></path><path d="M431.01999999999987 0L1440 404.78L1440 430.01L294.8199999999999 0z" fill="rgba(255, 255, 255, .025)"></path><path d="M0 560L612.5 560L0 446.5z" fill="rgba(0, 0, 0, .1)"></path><path d="M0 446.5L612.5 560L637.13 560L0 419.46z" fill="rgba(0, 0, 0, .075)"></path><path d="M0 419.46000000000004L637.13 560L783.63 560L0 221.01000000000005z" fill="rgba(0, 0, 0, .05)"></path><path d="M0 221.01L783.63 560L1212.04 560L0 82.28z" fill="rgba(0, 0, 0, .025)"></path></g><defs><mask id="SvgjsMask1002"><rect width="1440" height="560" fill="#ffffff"></rect></mask><linearGradient x1="15.28%" y1="-39.29%" x2="84.72%" y2="139.29%" gradientUnits="userSpaceOnUse" id="SvgjsLinearGradient1003"><stop stop-color="#0e2a47" offset="0"></stop><stop stop-color="#00459e" offset="1"></stop></linearGradient></defs></svg>